<mxfile host="drawio-plugin" modified="2022-12-10T04:18:38.932Z" agent="5.0 (Windows NT 6.2; Win64; x64) AppleWebKit/537.36 (KHTML, like Gecko) Chrome/98.0.4758.102 Safari/537.36" etag="pbDg-pOQzFlfOBb7nask" version="20.5.3" type="embed"><diagram id="WvpZndp7eJZMyQsxit7F" name="Page-1"><mxGraphModel dx="1602" dy="865" grid="1" gridSize="10" guides="1" tooltips="1" connect="1" arrows="1" fold="1" page="1" pageScale="1" pageWidth="850" pageHeight="1100" math="0" shadow="0"><root><mxCell id="0"/><mxCell id="1" parent="0"/><mxCell id="2" value="ScrabbleModel" style="swimlane;fontStyle=1;align=center;verticalAlign=top;childLayout=stackLayout;horizontal=1;startSize=26;horizontalStack=0;resizeParent=1;resizeParentMax=0;resizeLast=0;collapsible=1;marginBottom=0;fillColor=none;" parent="1" vertex="1"><mxGeometry x="258" y="17" width="335" height="996" as="geometry"/></mxCell><mxCell id="3" value="" style="line;strokeWidth=1;fillColor=none;align=left;verticalAlign=middle;spacingTop=-1;spacingLeft=3;spacingRight=3;rotatable=0;labelPosition=right;points=[];portConstraint=eastwest;" parent="2" vertex="1"><mxGeometry y="26" width="335" height="2" as="geometry"/></mxCell><mxCell id="13" value="&lt;u&gt;+SIDE_BACKGROUND_COLOUR:Colour&lt;br&gt;&lt;div style=&quot;text-align: left;&quot;&gt;&lt;u style=&quot;background-color: initial;&quot;&gt;+MAX_PLAYERS: int&lt;/u&gt;&lt;/div&gt;&lt;div style=&quot;text-align: left;&quot;&gt;&lt;u style=&quot;background-color: initial;&quot;&gt;+MIN_PLAYERS: int&lt;/u&gt;&lt;/div&gt;&lt;div style=&quot;text-align: left;&quot;&gt;&lt;u style=&quot;background-color: initial;&quot;&gt;+BOARD_SIZE: int&lt;/u&gt;&lt;/div&gt;&lt;/u&gt;" style="text;html=1;align=center;verticalAlign=middle;resizable=0;points=[];autosize=1;strokeColor=none;fillColor=none;" vertex="1" parent="2"><mxGeometry y="28" width="335" height="70" as="geometry"/></mxCell><mxCell id="4" value="- board: Board&#10;- inputHandler: TextController&#10;- players: ArrayList&lt;Player&gt;&#10;- numPlayers: int&#10;- turn: int&#10;- drawPile: DrawPile&#10;- gameFinished: boolean&#10;-undoHandler: UndoHandler&#10;-redoHandler: RedoHandler&#10;-selectedTiles: List&lt;Tile&gt;&#10;-modelListeners: List&lt;ModelListener&gt;&#10;-debugControllers: List&lt;SController&gt;" style="text;strokeColor=none;fillColor=none;align=left;verticalAlign=top;spacingLeft=4;spacingRight=4;overflow=hidden;rotatable=0;points=[[0,0.5],[1,0.5]];portConstraint=eastwest;" parent="2" vertex="1"><mxGeometry y="98" width="335" height="202" as="geometry"/></mxCell><mxCell id="5" value="" style="line;strokeWidth=1;fillColor=none;align=left;verticalAlign=middle;spacingTop=-1;spacingLeft=3;spacingRight=3;rotatable=0;labelPosition=right;points=[];portConstraint=eastwest;" parent="2" vertex="1"><mxGeometry y="300" width="335" height="8" as="geometry"/></mxCell><mxCell id="6" value="&lt;span&gt;&lt;br&gt;&lt;br&gt;-getPlayerInfos(List&amp;lt;String&amp;gt;): HashMap&amp;lt;String,boolean&amp;gt;&lt;br&gt;+ScrabbleModel(List&amp;lt;String&amp;gt;)&lt;br&gt;+ScrabbleModel(HashMap&amp;lt;String,boolean&amp;gt;)&lt;br&gt;- incrementTurn(): void&lt;br&gt;&lt;/span&gt;-decrementTurn(): void&lt;br style=&quot;padding: 0px ; margin: 0px&quot;&gt;&lt;span&gt;- initializePlayers(HashMap&amp;lt;String, Boolean&amp;gt;): void&lt;br&gt;&lt;/span&gt;-handleSkip():void&lt;br style=&quot;padding: 0px ; margin: 0px&quot;&gt;&lt;span&gt;+ getDrawPile(): DrawPile&lt;/span&gt;&lt;br style=&quot;padding: 0px ; margin: 0px&quot;&gt;&lt;span&gt;- getXCoord(String): int&lt;/span&gt;&lt;br style=&quot;padding: 0px ; margin: 0px&quot;&gt;&lt;span&gt;- getYCoord(String ): int&lt;/span&gt;&lt;br style=&quot;padding: 0px ; margin: 0px&quot;&gt;&lt;span&gt;- getDirection(String): boolean&lt;/span&gt;&lt;br style=&quot;padding: 0px ; margin: 0px&quot;&gt;&lt;span&gt;- validateCoords(&lt;/span&gt;String&amp;nbsp;&lt;span&gt;,&amp;nbsp;&lt;/span&gt;String&lt;span&gt;):&amp;nbsp; boolean&lt;br&gt;- getAction(): boolean&lt;br&gt;- handleDiscard(Player ): void&lt;br&gt;- handlePlace(Player ): void&lt;br&gt;- nextTurn(boolean): void&lt;br&gt;- startGame(): void&lt;br&gt;-getTopPlayer(): Player&lt;br&gt;-endGame():void&lt;br&gt;+getCurPlayer():Player&lt;br&gt;+getCurHand():Hand&lt;br&gt;-flipTileselected(TileClickEvent):void&lt;br&gt;+getPlayers():ArrayList&amp;lt;Player&amp;gt;&lt;br&gt;-handleControllerEvent (ControllerEvent):void&lt;br&gt;-serializeModel(File):void&lt;br&gt;-deSerializeModel(File): void&lt;br&gt;+addModelListener(ModelListener):void&lt;br&gt;+notifyModelListener(ModelEvent):void&lt;br&gt;+getBoard():Board&lt;br&gt;+addDebugController(SController):void&lt;br&gt;+getDebugController():List&amp;lt;SController&amp;gt;&lt;br&gt;-handleUndo():void&lt;br&gt;-handleRedo():void&lt;br&gt;+getUndoHandler():UndoHandler&lt;br&gt;+getRedoHandler():RedoHandler&lt;br&gt;&lt;br&gt;&lt;br&gt;&lt;br&gt;&lt;br&gt;&lt;br&gt;&lt;br&gt;&lt;br&gt;&lt;br&gt;&lt;br&gt;&lt;br&gt;&lt;br&gt;&lt;/span&gt;" style="text;html=1;strokeColor=none;fillColor=none;align=left;verticalAlign=middle;whiteSpace=wrap;rounded=0;" parent="2" vertex="1"><mxGeometry y="308" width="335" height="688" as="geometry"/></mxCell><mxCell id="7" value="Serializable" style="html=1;" vertex="1" parent="1"><mxGeometry x="680" y="580" width="110" height="50" as="geometry"/></mxCell><mxCell id="8" value="SControllerListener" style="html=1;" vertex="1" parent="1"><mxGeometry x="610" y="660" width="110" height="50" as="geometry"/></mxCell><mxCell id="9" value="SModel" style="html=1;" vertex="1" parent="1"><mxGeometry x="680" y="490" width="110" height="50" as="geometry"/></mxCell><mxCell id="10" value="" style="endArrow=block;dashed=1;endFill=0;endSize=12;html=1;rounded=0;exitX=1.003;exitY=0.135;exitDx=0;exitDy=0;exitPerimeter=0;entryX=0.664;entryY=0.02;entryDx=0;entryDy=0;entryPerimeter=0;" edge="1" parent="1" source="6" target="8"><mxGeometry width="160" relative="1" as="geometry"><mxPoint x="340" y="880" as="sourcePoint"/><mxPoint x="460" y="970" as="targetPoint"/></mxGeometry></mxCell><mxCell id="11" value="" style="endArrow=block;dashed=1;endFill=0;endSize=12;html=1;rounded=0;entryX=0.427;entryY=0.04;entryDx=0;entryDy=0;entryPerimeter=0;exitX=1;exitY=0.065;exitDx=0;exitDy=0;exitPerimeter=0;" edge="1" parent="1" source="6" target="7"><mxGeometry width="160" relative="1" as="geometry"><mxPoint x="660" y="720" as="sourcePoint"/><mxPoint x="443.03999999999996" y="1011" as="targetPoint"/></mxGeometry></mxCell><mxCell id="12" value="" style="endArrow=block;dashed=1;endFill=0;endSize=12;html=1;rounded=0;exitX=1;exitY=0;exitDx=0;exitDy=0;entryX=0.827;entryY=0.04;entryDx=0;entryDy=0;entryPerimeter=0;" edge="1" parent="1" source="6" target="9"><mxGeometry width="160" relative="1" as="geometry"><mxPoint x="479.94000000000005" y="905" as="sourcePoint"/><mxPoint x="320" y="960" as="targetPoint"/></mxGeometry></mxCell><mxCell id="15" value="Tile" style="html=1;fillColor=none;" vertex="1" parent="1"><mxGeometry x="20" y="590" width="110" height="50" as="geometry"/></mxCell><mxCell id="16" value="UndoHandler" style="html=1;fillColor=none;" vertex="1" parent="1"><mxGeometry x="10" y="670" width="100" height="50" as="geometry"/></mxCell><mxCell id="17" value="RedoHandler" style="html=1;fillColor=none;" vertex="1" parent="1"><mxGeometry x="20" y="510" width="110" height="50" as="geometry"/></mxCell><mxCell id="18" value="ModelListener" style="html=1;fillColor=none;" vertex="1" parent="1"><mxGeometry x="40" y="290" width="110" height="50" as="geometry"/></mxCell><mxCell id="19" value="SController" style="html=1;fillColor=none;" vertex="1" parent="1"><mxGeometry x="30" y="440" width="110" height="50" as="geometry"/></mxCell><mxCell id="20" value="Player" style="html=1;fillColor=none;" vertex="1" parent="1"><mxGeometry x="30" y="350" width="110" height="50" as="geometry"/></mxCell><mxCell id="21" value="TextController" style="html=1;fillColor=none;" vertex="1" parent="1"><mxGeometry x="40" y="230" width="110" height="50" as="geometry"/></mxCell><mxCell id="22" value="DrawePile" style="html=1;fillColor=none;" vertex="1" parent="1"><mxGeometry x="50" y="80" width="110" height="50" as="geometry"/></mxCell><mxCell id="23" value="Board" style="html=1;fillColor=none;" vertex="1" parent="1"><mxGeometry x="40" y="150" width="110" height="50" as="geometry"/></mxCell><mxCell id="27" value="" style="endArrow=diamondThin;endFill=0;endSize=24;html=1;rounded=0;exitX=1;exitY=0.5;exitDx=0;exitDy=0;entryX=-0.012;entryY=0.257;entryDx=0;entryDy=0;entryPerimeter=0;" edge="1" parent="1" source="21" target="4"><mxGeometry width="160" relative="1" as="geometry"><mxPoint x="150" y="260" as="sourcePoint"/><mxPoint x="240" y="220" as="targetPoint"/></mxGeometry></mxCell><mxCell id="32" value="" style="endArrow=diamondThin;endFill=0;endSize=24;html=1;rounded=0;entryX=-0.006;entryY=0.416;entryDx=0;entryDy=0;entryPerimeter=0;" edge="1" parent="1" target="4"><mxGeometry width="160" relative="1" as="geometry"><mxPoint x="150" y="310" as="sourcePoint"/><mxPoint x="230" y="280" as="targetPoint"/></mxGeometry></mxCell><mxCell id="33" value="" style="endArrow=diamondThin;endFill=0;endSize=24;html=1;rounded=0;entryX=0.003;entryY=0.668;entryDx=0;entryDy=0;entryPerimeter=0;" edge="1" parent="1" target="4"><mxGeometry width="160" relative="1" as="geometry"><mxPoint x="140" y="370" as="sourcePoint"/><mxPoint x="220" y="340" as="targetPoint"/></mxGeometry></mxCell><mxCell id="34" value="" style="endArrow=diamondThin;endFill=0;endSize=24;html=1;rounded=0;entryX=0;entryY=0.896;entryDx=0;entryDy=0;entryPerimeter=0;" edge="1" parent="1" target="4"><mxGeometry width="160" relative="1" as="geometry"><mxPoint x="130" y="440" as="sourcePoint"/><mxPoint x="216.9849999999999" y="406.9760000000001" as="targetPoint"/></mxGeometry></mxCell><mxCell id="35" value="" style="endArrow=diamondThin;endFill=0;endSize=24;html=1;rounded=0;entryX=-0.009;entryY=0.031;entryDx=0;entryDy=0;entryPerimeter=0;" edge="1" parent="1" target="6"><mxGeometry width="160" relative="1" as="geometry"><mxPoint x="130" y="521.01" as="sourcePoint"/><mxPoint x="230" y="460.00199999999995" as="targetPoint"/></mxGeometry></mxCell><mxCell id="36" value="" style="endArrow=diamondThin;endFill=0;endSize=24;html=1;rounded=0;entryX=-0.006;entryY=0.103;entryDx=0;entryDy=0;entryPerimeter=0;" edge="1" parent="1" target="6"><mxGeometry width="160" relative="1" as="geometry"><mxPoint x="130" y="595.68" as="sourcePoint"/><mxPoint x="226.9849999999999" y="503.998" as="targetPoint"/></mxGeometry></mxCell><mxCell id="37" value="" style="endArrow=diamondThin;endFill=0;endSize=24;html=1;rounded=0;entryX=-0.009;entryY=0.189;entryDx=0;entryDy=0;entryPerimeter=0;" edge="1" parent="1" target="6"><mxGeometry width="160" relative="1" as="geometry"><mxPoint x="110" y="696.8199999999998" as="sourcePoint"/><mxPoint x="207.99" y="580.004" as="targetPoint"/></mxGeometry></mxCell><mxCell id="38" value="" style="endArrow=diamondThin;endFill=0;endSize=24;html=1;rounded=0;entryX=-0.003;entryY=0.586;entryDx=0;entryDy=0;entryPerimeter=0;" edge="1" parent="1" target="13"><mxGeometry width="160" relative="1" as="geometry"><mxPoint x="150" y="169" as="sourcePoint"/><mxPoint x="266.9849999999999" y="10.001999999999953" as="targetPoint"/></mxGeometry></mxCell><mxCell id="39" value="" style="endArrow=diamondThin;endFill=0;endSize=24;html=1;rounded=0;entryX=-0.003;entryY=0.271;entryDx=0;entryDy=0;entryPerimeter=0;exitX=1;exitY=1;exitDx=0;exitDy=0;" edge="1" parent="1" source="22" target="13"><mxGeometry width="160" relative="1" as="geometry"><mxPoint x="151.01" y="140" as="sourcePoint"/><mxPoint x="230.00499999999988" y="140.01999999999998" as="targetPoint"/></mxGeometry></mxCell></root></mxGraphModel></diagram></mxfile>